<svg width="24" height="24" viewBox="0 0 24 24" fill="none" xmlns="http://www.w3.org/2000/svg">
<path fill-rule="evenodd" clip-rule="evenodd" d="M11.32 6.17603H5C3.895 6.17603 3 7.12502 3 8.29402V18.882C3 20.052 3.895 21 5 21H16C17.105 21 18 20.052 18 18.882V11.132L14.086 15.276C13.7442 15.6415 13.2991 15.8941 12.81 16L10.129 16.568C8.379 16.938 6.837 15.305 7.187 13.453L7.723 10.614C7.82 10.102 8.058 9.63103 8.407 9.26203L11.32 6.17603Z" fill="black"/>
<path fill-rule="evenodd" clip-rule="evenodd" d="M19.846 4.31802C19.7449 4.06205 19.5967 3.82732 19.409 3.62602C19.2245 3.42915 19.002 3.27165 18.755 3.16302C18.5117 3.05615 18.2488 3.00098 17.983 3.00098C17.7172 3.00098 17.4543 3.05615 17.211 3.16302C16.964 3.27165 16.7415 3.42915 16.557 3.62602L16.011 4.20402L18.863 7.22402L19.409 6.64502C19.5986 6.44524 19.7471 6.21011 19.846 5.95302C20.052 5.42749 20.052 4.84355 19.846 4.31802ZM17.45 8.72102L14.597 5.70002L9.82 10.76C9.74953 10.8351 9.70199 10.9288 9.683 11.03L9.14701 13.87C9.07701 14.24 9.386 14.566 9.735 14.492L12.417 13.925C12.5146 13.9033 12.6034 13.8528 12.672 13.78L17.45 8.72102Z" fill="black"/>
</svg>
