<svg width="24" height="24" viewBox="0 0 24 24" fill="none" xmlns="http://www.w3.org/2000/svg">
<path d="M12.04 1.99999C6.58 1.99999 2.13 6.44999 2.13 11.91C2.13 13.66 2.59 15.36 3.45 16.86L2.05 22L7.3 20.62C8.75 21.41 10.38 21.83 12.04 21.83C17.5 21.83 21.95 17.38 21.95 11.92C21.95 9.26999 20.92 6.77999 19.05 4.90999C18.1331 3.9841 17.041 3.24996 15.8375 2.75036C14.634 2.25075 13.3431 1.99568 12.04 1.99999ZM12.05 3.66999C14.25 3.66999 16.31 4.52999 17.87 6.08999C18.6354 6.85551 19.2422 7.7645 19.6558 8.76491C20.0693 9.76532 20.2815 10.8375 20.28 11.92C20.28 16.46 16.58 20.15 12.04 20.15C10.56 20.15 9.11 19.76 7.85 19L7.55 18.83L4.43 19.65L5.26 16.61L5.06 16.29C4.23455 14.9784 3.79767 13.4597 3.8 11.91C3.81 7.36999 7.5 3.66999 12.05 3.66999ZM8.53 7.32999C8.37 7.32999 8.1 7.38999 7.87 7.63999C7.65 7.88999 7 8.49999 7 9.70999C7 10.93 7.89 12.1 8 12.27C8.14 12.44 9.76 14.94 12.25 16C12.84 16.27 13.3 16.42 13.66 16.53C14.25 16.72 14.79 16.69 15.22 16.63C15.7 16.56 16.68 16.03 16.89 15.45C17.1 14.87 17.1 14.38 17.04 14.27C16.97 14.17 16.81 14.11 16.56 14C16.31 13.86 15.09 13.26 14.87 13.18C14.64 13.1 14.5 13.06 14.31 13.3C14.15 13.55 13.67 14.11 13.53 14.27C13.38 14.44 13.24 14.46 13 14.34C12.74 14.21 11.94 13.95 11 13.11C10.26 12.45 9.77 11.64 9.62 11.39C9.5 11.15 9.61 11 9.73 10.89C9.84 10.78 10 10.6 10.1 10.45C10.23 10.31 10.27 10.2 10.35 10.04C10.43 9.86999 10.39 9.72999 10.33 9.60999C10.27 9.49999 9.77 8.25999 9.56 7.76999C9.36 7.28999 9.16 7.34999 9 7.33999C8.86 7.33999 8.7 7.32999 8.53 7.32999Z" fill="black"/>
</svg>
